<svg xmlns="http://www.w3.org/2000/svg" width="900" height="420" viewBox="0 0 900 420"><style>text{font-family:Menlo,Consolas,monospace;fill:#e8edf2} .small{font-size:12px} .title{font-size:18px;font-weight:700}</style><rect width="100%" height="100%" fill="#11161c" rx="18"/><text x="60" y="34" class="title">Reward MA10 Overlay</text><line x1="60" y1="360" x2="840" y2="360" stroke="#51606f" stroke-width="1"/><line x1="60" y1="60" x2="60" y2="360" stroke="#51606f" stroke-width="1"/><polyline fill="none" stroke="#ff9f40" stroke-width="2.5" points="60.0,60.0 61.3,255.1 62.6,261.7 63.9,263.5 65.2,269.0 66.5,226.7 67.8,276.5 69.1,208.4 70.4,287.0 71.7,203.0 73.0,225.2 74.3,290.4 75.6,302.5 76.9,194.6 78.2,241.7 79.5,280.0 80.8,286.9 82.1,113.3 83.4,254.6 84.7,260.8 86.0,283.5 87.3,212.6 88.6,264.7 89.9,227.7 91.2,250.4 92.5,210.9 93.8,197.9 95.1,274.9 96.4,287.8 97.7,175.8 99.0,223.8 100.3,300.0 101.6,243.0 102.9,167.7 104.2,262.2 105.5,253.9 106.8,215.6 108.1,223.7 109.4,227.7 110.7,307.9 112.0,258.9 113.3,201.8 114.6,269.0 115.9,271.4 117.2,214.4 118.5,209.4 119.8,268.1 121.1,261.4 122.4,241.1 123.7,252.6 125.0,339.8 126.3,263.1 127.6,213.4 128.9,156.4 130.2,260.7 131.5,299.1 132.8,278.3 134.1,221.9 135.4,218.4 136.7,314.8 138.0,250.1 139.3,195.1 140.6,227.7 141.9,265.9 143.2,285.5 144.5,209.9 145.8,280.4 147.1,343.5 148.4,240.3 149.7,255.0 151.0,203.9 152.3,262.0 153.6,276.3 154.9,200.1 156.2,225.3 157.5,253.9 158.8,179.2 160.1,259.5 161.4,233.1 162.7,309.2 164.0,213.3 165.3,245.6 166.6,236.5 167.9,304.6 169.2,258.2 170.5,201.8 171.8,226.5 173.1,254.1 174.4,206.6 175.7,175.9 177.0,182.5 178.3,262.7 179.6,169.6 180.9,259.5 182.2,234.9 183.5,263.2 184.8,179.6 186.1,151.4 187.4,216.6 188.7,335.5 190.0,205.9 191.3,200.4 192.6,276.7 193.9,269.4 195.2,212.9 196.5,148.0 197.8,270.0 199.1,289.8 200.4,187.3 201.7,138.9 203.0,274.5 204.3,300.9 205.6,169.2 206.9,214.0 208.2,250.7 209.5,252.2 210.8,205.9 212.1,179.2 213.4,216.7 214.7,261.7 216.0,215.4 217.3,191.3 218.6,297.0 219.9,289.9 221.2,239.6 222.5,211.4 223.8,303.4 225.1,269.8 226.4,248.2 227.7,173.2 229.0,241.6 230.3,334.8 231.6,212.7 232.9,166.5 234.2,244.1 235.5,253.9 236.8,260.5 238.1,273.5 239.4,268.4 240.7,254.2 242.0,250.3 243.3,230.7 244.6,218.2 245.9,291.9 247.2,171.2 248.5,202.0 249.8,224.3 251.1,264.7 252.4,241.8 253.7,222.6 255.0,253.8 256.3,280.2 257.6,213.0 258.9,318.0 260.2,233.4 261.5,314.8 262.8,205.3 264.1,183.8 265.4,242.8 266.7,252.7 268.0,215.5 269.3,237.0 270.6,285.2 271.9,290.0 273.2,259.1 274.5,231.9 275.8,186.0 277.1,245.0 278.4,179.1 279.7,244.7 281.0,230.9 282.3,298.4 283.6,241.5 284.9,201.2 286.2,250.0 287.5,262.7 288.8,212.7 290.1,201.7 291.4,238.9 292.7,323.4 294.0,321.6 295.3,261.7 296.6,204.8 297.9,252.2 299.2,206.5 300.5,182.3 301.8,220.3 303.1,271.1 304.4,242.1 305.7,195.8 307.0,187.8 308.3,334.6 309.6,242.1 310.9,166.6 312.2,216.8 313.5,244.1 314.8,249.5 316.1,175.2 317.4,259.4 318.7,287.0 320.0,284.0 321.3,200.9 322.6,216.8 323.9,317.6 325.2,240.2 326.5,202.6 327.8,276.3 329.1,306.6 330.4,224.6 331.7,202.5 333.0,271.4 334.3,262.0 335.6,170.0 336.9,165.4 338.2,258.2 339.5,253.0 340.8,239.4 342.1,197.2 343.4,204.9 344.7,281.8 346.0,287.5 347.3,140.0 348.6,213.5 349.9,290.3 351.2,311.5 352.5,227.2 353.8,324.8 355.1,325.5 356.4,286.0 357.7,196.5 359.0,241.9 360.3,334.0 361.6,221.3 362.9,120.6 364.2,204.5 365.5,271.4 366.8,257.5 368.1,155.5 369.4,301.3 370.7,269.5 372.0,215.1 373.3,193.8 374.6,256.6 375.9,270.7 377.2,247.6 378.5,192.4 379.8,252.7 381.1,289.4 382.4,169.4 383.7,138.7 385.0,311.7 386.3,232.9 387.6,203.9 388.9,122.9 390.2,241.9 391.5,262.1 392.8,205.0 394.1,167.4 395.4,241.8 396.7,271.8 398.0,251.4 399.3,193.2 400.6,251.8 401.9,307.3 403.2,169.6 404.5,210.6 405.8,266.7 407.1,271.0 408.4,241.5 409.7,194.1 411.0,266.7 412.3,308.3 413.6,275.1 414.9,139.2 416.2,213.6 417.5,261.7 418.8,222.4 420.1,158.1 421.4,222.5 422.7,253.4 424.0,239.3 425.3,157.8 426.6,253.6 427.9,286.6 429.2,169.6 430.5,142.0 431.8,219.4 433.1,306.8 434.4,168.1 435.7,236.5 437.0,195.9 438.3,296.9 439.6,178.2 440.9,190.8 442.2,204.0 443.5,251.9 444.8,239.7 446.1,195.0 447.4,222.7 448.7,279.8 450.0,241.5 451.3,167.2 452.6,201.3 453.9,226.8 455.2,206.0 456.5,264.3 457.8,259.4 459.1,281.0 460.4,213.7 461.7,129.9 463.0,244.2 464.3,300.1 465.6,202.9 466.9,136.3 468.2,249.2 469.5,286.5 470.8,212.3 472.1,228.0 473.4,253.4 474.7,288.0 476.0,250.5 477.3,132.7 478.6,251.9 479.9,287.3 481.2,249.0 482.5,176.2 483.8,261.8 485.1,261.9 486.4,213.4 487.7,130.2 489.0,258.0 490.3,253.2 491.6,169.2 492.9,248.4 494.2,314.5 495.5,308.1 496.8,176.4 498.1,181.7 499.4,293.1 500.7,297.6 502.0,214.1 503.3,167.0 504.6,268.5 505.9,298.3 507.2,239.4 508.5,174.7 509.8,240.8 511.1,325.0 512.4,205.5 513.7,191.0 515.0,214.3 516.3,252.8 517.6,291.3 518.9,166.6 520.2,294.2 521.5,262.5 522.8,241.0 524.1,205.6 525.4,199.4 526.7,287.5 528.0,248.1 529.3,140.8 530.6,199.3 531.9,341.1 533.2,176.7 534.5,126.3 535.8,295.7 537.1,275.2 538.4,186.7 539.7,200.8 541.0,221.2 542.3,270.2 543.6,185.5 544.9,239.3 546.2,286.2 547.5,290.9 548.8,275.3 550.1,126.7 551.4,318.7 552.7,298.5 554.0,284.8 555.3,110.1 556.6,200.7 557.9,334.6 559.2,212.1 560.5,116.8 561.8,258.0 563.1,295.3 564.4,319.6 565.7,197.3 567.0,289.1 568.3,304.8 569.6,221.1 570.9,167.3 572.2,283.5 573.5,253.2 574.8,246.5 576.1,191.3 577.4,213.5 578.7,298.1 580.0,170.2 581.3,215.0 582.6,266.5 583.9,289.1 585.2,205.9 586.5,133.5 587.8,250.1 589.1,289.4 590.4,206.4 591.7,138.6 593.0,310.6 594.3,323.1 595.6,238.7 596.9,147.8 598.2,238.5 599.5,314.0 600.8,213.2 602.1,227.5 603.4,273.9 604.7,286.5 606.0,249.3 607.3,175.2 608.6,234.6 609.9,324.3 611.2,177.1 612.5,182.7 613.8,228.9 615.1,288.5 616.4,238.9 617.7,170.9 619.0,267.9 620.3,252.7 621.6,214.3 622.9,190.1 624.2,236.3 625.5,288.5 626.8,285.2 628.1,136.0 629.4,221.3 630.7,261.2 632.0,169.7 633.3,172.6 634.6,234.9 635.9,298.6 637.2,178.8 638.5,153.1 639.8,186.5 641.1,270.8 642.4,186.4 643.7,166.7 645.0,261.2 646.3,333.1 647.6,205.1 648.9,138.4 650.2,231.9 651.5,288.1 652.8,178.9 654.1,221.9 655.4,267.6 656.7,324.3 658.0,250.1 659.3,237.8 660.6,233.8 661.9,279.8 663.2,283.0 664.5,208.0 665.8,215.7 667.1,288.4 668.4,241.3 669.7,169.5 671.0,237.7 672.3,280.1 673.6,258.8 674.9,211.8 676.2,287.3 677.5,252.9 678.8,213.8 680.1,176.1 681.4,205.1 682.7,287.4 684.0,238.4 685.3,164.2 686.6,248.0 687.9,324.2 689.2,186.2 690.5,143.6 691.8,177.0 693.1,300.6 694.4,178.0 695.7,155.1 697.0,219.0 698.3,287.4 699.6,240.6 700.9,208.7 702.2,239.5 703.5,297.1 704.8,204.2 706.1,240.1 707.4,183.6 708.7,253.9 710.0,203.4 711.3,189.8 712.6,222.8 713.9,270.0 715.2,212.5 716.5,260.1 717.8,229.8 719.1,360.0 720.4,311.8 721.7,160.6 723.0,263.7 724.3,252.7 725.6,204.4 726.9,193.5 728.2,287.9 729.5,252.5 730.8,202.5 732.1,183.7 733.4,228.8 734.7,253.3 736.0,248.1 737.3,152.0 738.6,186.4 739.9,323.8 741.2,168.7 742.5,154.7 743.8,204.3 745.1,262.2 746.4,176.7 747.7,154.8 749.0,234.9 750.3,260.6 751.6,187.3 752.9,199.0 754.2,240.6 755.5,289.7 756.8,168.5 758.1,121.9 759.4,273.1 760.7,287.4 762.0,212.3 763.3,156.2 764.6,273.6 765.9,261.1 767.2,214.8 768.5,156.9 769.8,269.5 771.1,332.5 772.4,167.4 773.7,118.7 775.0,283.3 776.3,287.5 777.6,241.3 778.9,155.3 780.2,214.5 781.5,303.8 782.8,204.4 784.1,101.2 785.4,225.7 786.7,287.2 788.0,214.2 789.3,120.2 790.6,286.4 791.9,218.1 793.2,203.1 794.5,260.1 795.8,281.5 797.1,261.4 798.4,167.8 799.7,121.8 801.0,242.2 802.3,286.7 803.6,203.7 804.9,169.2 806.2,220.4 807.5,287.0 808.8,169.5 810.1,205.1 811.4,238.6 812.7,253.5 814.0,250.6 815.3,170.5 816.6,247.4 817.9,290.5 819.2,250.2 820.5,224.9 821.8,270.5 823.1,261.5 824.4,177.3 825.7,215.2 827.0,251.2 828.3,323.8 829.6,205.5 830.9,178.3 832.2,251.9 833.5,254.8 834.8,205.8 836.1,225.7 837.4,196.4 838.7,261.2 840.0,213.9"/><polyline fill="none" stroke="#36cfc9" stroke-width="2.5" points="60.0,65.0 61.3,223.0 62.6,188.9 63.9,323.5 65.2,322.6 66.5,194.4 67.8,250.1 69.1,265.2 70.4,285.0 71.7,265.3 73.0,267.1 74.3,241.3 75.6,285.5 76.9,229.7 78.2,253.9 79.5,255.9 80.8,330.3 82.1,265.3 83.4,233.5 84.7,263.8 86.0,292.5 87.3,223.3 88.6,223.2 89.9,291.6 91.2,240.3 92.5,203.2 93.8,219.6 95.1,281.0 96.4,319.2 97.7,193.4 99.0,260.4 100.3,290.4 101.6,180.6 102.9,319.1 104.2,261.6 105.5,264.1 106.8,283.8 108.1,208.4 109.4,275.7 110.7,286.5 112.0,248.1 113.3,221.4 114.6,226.5 115.9,265.1 117.2,311.5 118.5,211.4 119.8,207.8 121.1,250.6 122.4,213.9 123.7,194.2 125.0,232.6 126.3,298.7 127.6,249.9 128.9,285.0 130.2,237.3 131.5,261.7 132.8,277.4 134.1,296.1 135.4,276.2 136.7,288.9 138.0,314.3 139.3,281.6 140.6,293.9 141.9,252.8 143.2,340.1 144.5,227.9 145.8,194.4 147.1,316.3 148.4,251.2 149.7,170.0 151.0,260.2 152.3,301.6 153.6,249.1 154.9,212.8 156.2,224.8 157.5,290.1 158.8,284.5 160.1,210.0 161.4,236.6 162.7,298.6 164.0,223.7 165.3,205.2 166.6,277.2 167.9,305.4 169.2,231.9 170.5,168.8 171.8,208.6 173.1,278.6 174.4,259.2 175.7,150.0 177.0,224.1 178.3,242.4 179.6,214.6 180.9,284.0 182.2,270.4 183.5,301.5 184.8,251.8 186.1,211.8 187.4,271.1 188.7,272.1 190.0,250.4 191.3,245.7 192.6,253.9 193.9,298.2 195.2,204.1 196.5,281.8 197.8,256.8 199.1,253.4 200.4,241.2 201.7,211.7 203.0,278.6 204.3,290.7 205.6,249.3 206.9,212.4 208.2,230.6 209.5,227.6 210.8,215.1 212.1,252.7 213.4,225.6 214.7,262.1 216.0,321.1 217.3,210.0 218.6,249.4 219.9,316.5 221.2,242.3 222.5,122.8 223.8,251.5 225.1,271.5 226.4,252.7 227.7,184.0 229.0,233.9 230.3,270.5 231.6,258.1 232.9,247.9 234.2,270.9 235.5,282.2 236.8,238.5 238.1,214.2 239.4,246.7 240.7,290.5 242.0,205.6 243.3,212.2 244.6,212.8 245.9,296.6 247.2,276.8 248.5,210.0 249.8,267.5 251.1,261.5 252.4,212.6 253.7,204.1 255.0,295.0 256.3,287.8 257.6,286.0 258.9,220.0 260.2,277.3 261.5,297.0 262.8,215.9 264.1,176.1 265.4,261.2 266.7,273.1 268.0,222.1 269.3,176.1 270.6,267.9 271.9,289.1 273.2,248.4 274.5,184.7 275.8,239.9 277.1,306.2 278.4,287.4 279.7,212.7 281.0,229.2 282.3,270.3 283.6,223.3 284.9,200.6 286.2,250.9 287.5,307.3 288.8,259.0 290.1,159.8 291.4,251.7 292.7,253.4 294.0,250.6 295.3,227.6 296.6,215.0 297.9,262.3 299.2,248.6 300.5,247.4 301.8,267.5 303.1,252.4 304.4,284.5 305.7,157.2 307.0,214.8 308.3,254.0 309.6,213.6 310.9,224.2 312.2,229.9 313.5,299.5 314.8,214.1 316.1,242.3 317.4,292.9 318.7,308.0 320.0,239.9 321.3,135.0 322.6,234.2 323.9,299.1 325.2,241.3 326.5,174.9 327.8,272.0 329.1,270.8 330.4,240.3 331.7,211.2 333.0,252.9 334.3,307.5 335.6,276.4 336.9,166.5 338.2,258.1 339.5,227.3 340.8,260.7 342.1,216.0 343.4,257.6 344.7,219.2 346.0,204.4 347.3,191.8 348.6,250.0 349.9,324.8 351.2,170.4 352.5,177.7 353.8,205.0 355.1,289.8 356.4,223.0 357.7,181.8 359.0,204.6 360.3,268.4 361.6,229.6 362.9,203.6 364.2,214.3 365.5,299.1 366.8,242.2 368.1,194.8 369.4,250.7 370.7,289.1 372.0,276.3 373.3,245.6 374.6,293.0 375.9,253.4 377.2,214.5 378.5,195.1 379.8,298.3 381.1,264.0 382.4,179.4 383.7,165.6 385.0,294.8 386.3,272.1 387.6,206.6 388.9,165.8 390.2,285.5 391.5,298.1 392.8,178.0 394.1,283.6 395.4,225.3 396.7,261.6 398.0,284.2 399.3,268.7 400.6,260.0 401.9,261.8 403.2,241.7 404.5,215.8 405.8,259.0 407.1,281.6 408.4,203.9 409.7,210.0 411.0,286.7 412.3,253.5 413.6,215.5 414.9,211.5 416.2,266.9 417.5,299.1 418.8,213.6 420.1,203.8 421.4,207.1 422.7,288.0 424.0,214.8 425.3,132.8 426.6,233.3 427.9,251.8 429.2,206.4 430.5,239.4 431.8,269.0 433.1,289.7 434.4,206.2 435.7,166.1 437.0,250.4 438.3,228.6 439.6,276.7 440.9,174.9 442.2,269.6 443.5,299.4 444.8,239.9 446.1,171.9 447.4,205.5 448.7,253.6 450.0,284.9 451.3,165.0 452.6,272.9 453.9,252.6 455.2,213.9 456.5,176.4 457.8,250.0 459.1,324.1 460.4,260.3 461.7,131.3 463.0,251.1 464.3,287.6 465.6,321.4 466.9,129.9 468.2,257.5 469.5,288.3 470.8,204.3 472.1,185.8 473.4,293.3 474.7,295.7 476.0,205.7 477.3,167.3 478.6,275.9 479.9,252.9 481.2,275.0 482.5,181.8 483.8,259.5 485.1,308.3 486.4,205.0 487.7,296.4 489.0,238.8 490.3,299.5 491.6,276.5 492.9,221.4 494.2,226.2 495.5,341.4 496.8,204.6 498.1,173.8 499.4,293.4 500.7,264.4 502.0,241.8 503.3,247.5 504.6,195.9 505.9,261.5 507.2,241.3 508.5,158.5 509.8,209.3 511.1,251.5 512.4,248.5 513.7,103.3 515.0,213.8 516.3,262.0 517.6,204.4 518.9,195.1 520.2,256.7 521.5,306.4 522.8,286.3 524.1,200.6 525.4,297.8 526.7,253.5 528.0,277.6 529.3,148.8 530.6,261.4 531.9,290.1 533.2,223.4 534.5,254.1 535.8,273.8 537.1,260.3 538.4,329.0 539.7,170.9 541.0,274.5 542.3,286.5 543.6,276.1 544.9,153.5 546.2,266.9 547.5,289.7 548.8,168.7 550.1,111.4 551.4,260.7 552.7,325.0 554.0,206.0 555.3,176.7 556.6,227.5 557.9,296.9 559.2,274.6 560.5,184.5 561.8,303.8 563.1,351.0 564.4,214.7 565.7,283.3 567.0,206.6 568.3,299.8 569.6,177.0 570.9,177.2 572.2,218.9 573.5,334.5 574.8,223.5 576.1,158.0 577.4,214.7 578.7,289.6 580.0,241.3 581.3,272.6 582.6,202.5 583.9,289.9 585.2,224.3 586.5,207.4 587.8,273.7 589.1,261.7 590.4,284.0 591.7,154.0 593.0,333.3 594.3,324.5 595.6,247.2 596.9,247.8 598.2,269.1 599.5,272.4 600.8,250.6 602.1,102.9 603.4,228.1 604.7,289.7 606.0,313.1 607.3,182.8 608.6,253.1 609.9,297.6 611.2,221.8 612.5,277.6 613.8,260.4 615.1,253.0 616.4,248.6 617.7,211.9 619.0,213.5 620.3,265.2 621.6,250.3 622.9,255.8 624.2,198.5 625.5,296.5 626.8,213.2 628.1,236.6 629.4,303.4 630.7,261.7 632.0,321.2 633.3,164.9 634.6,343.5 635.9,332.7 637.2,239.9 638.5,184.9 639.8,216.1 641.1,225.6 642.4,293.8 643.7,167.5 645.0,214.1 646.3,333.3 647.6,213.7 648.9,155.4 650.2,275.1 651.5,292.3 652.8,205.6 654.1,246.2 655.4,191.0 656.7,228.0 658.0,310.8 659.3,230.7 660.6,271.1 661.9,325.1 663.2,178.2 664.5,210.5 665.8,230.0 667.1,307.1 668.4,250.4 669.7,174.9 671.0,240.7 672.3,254.9 673.6,204.2 674.9,165.6 676.2,261.0 677.5,324.4 678.8,240.6 680.1,164.3 681.4,296.8 682.7,325.1 684.0,276.8 685.3,193.8 686.6,205.5 687.9,314.4 689.2,214.6 690.5,120.5 691.8,248.5 693.1,260.1 694.4,187.6 695.7,171.1 697.0,235.4 698.3,260.2 699.6,180.8 700.9,277.3 702.2,249.0 703.5,252.7 704.8,250.4 706.1,239.9 707.4,339.0 708.7,297.9 710.0,205.5 711.3,183.6 712.6,234.1 713.9,254.2 715.2,213.5 716.5,264.7 717.8,258.2 719.1,307.7 720.4,205.4 721.7,203.7 723.0,263.8 724.3,289.4 725.6,187.0 726.9,191.0 728.2,215.4 729.5,308.3 730.8,241.1 732.1,157.2 733.4,207.1 734.7,220.0 736.0,239.9 737.3,140.7 738.6,223.7 739.9,323.3 741.2,205.9 742.5,133.3 743.8,293.1 745.1,295.5 746.4,214.3 747.7,157.2 749.0,208.5 750.3,273.0 751.6,241.4 752.9,138.6 754.2,261.2 755.5,262.2 756.8,286.5 758.1,143.8 759.4,287.2 760.7,298.7 762.0,283.5 763.3,138.3 764.6,239.3 765.9,287.4 767.2,241.3 768.5,174.9 769.8,258.9 771.1,271.9 772.4,205.5 773.7,158.2 775.0,242.5 776.3,306.3 777.6,212.7 778.9,155.7 780.2,251.4 781.5,300.4 782.8,205.4 784.1,244.2 785.4,234.4 786.7,253.1 788.0,213.1 789.3,202.1 790.6,284.1 791.9,252.1 793.2,241.8 794.5,139.4 795.8,222.4 797.1,307.7 798.4,276.4 799.7,137.4 801.0,278.0 802.3,306.9 803.6,213.3 804.9,157.0 806.2,195.1 807.5,299.1 808.8,242.1 810.1,130.1 811.4,276.9 812.7,298.0 814.0,169.5 815.3,208.0 816.6,241.6 817.9,261.7 819.2,205.6 820.5,166.5 821.8,274.0 823.1,341.0 824.4,223.9 825.7,227.3 827.0,251.1 828.3,343.8 829.6,204.0 830.9,206.2 832.2,237.9 833.5,235.5 834.8,241.4 836.1,209.4 837.4,178.8 838.7,260.5 840.0,241.6"/><text x="680" y="40" class="small">seed7 130k</text><line x1="590" y1="36" x2="670" y2="36" stroke="#ff9f40" stroke-width="3"/><text x="680" y="62" class="small">seed11 130k</text><line x1="590" y1="58" x2="670" y2="58" stroke="#36cfc9" stroke-width="3"/></svg>